ffmpeg started on 2025-06-09 at 18:13:30
Report written to "D:\Convert\FFMetrics\reports\psnr_report-6.txt"
Log level: 32
Command line:
ffmpeg -hide_banner -nostdin -i "G:\\\xc0\xed\xe8\xec\xe5\\\xce\xed\xe3\xee\xe8\xed\xe3\xe8\\!_30_\xc2\xe5\xf1\xed\xe0_2023\\\xd1\xeb\xe8\xf8\xea\xee\xec \xec\xe8\xeb\xfb\xe9 \xea\xf0\xe8\xe7\xe8\xf1\\Kawaisugi_Crisis_[10]_[AniLibria_TV]_[WEBRip_1080p]_HEVC.mkv" -i "G:\\\xc0\xed\xe8\xec\xe5\\\xce\xed\xe3\xee\xe8\xed\xe3\xe8\\!_30_\xc2\xe5\xf1\xed\xe0_2023\\\xd1\xeb\xe8\xf8\xea\xee\xec \xec\xe8\xeb\xfb\xe9 \xea\xf0\xe8\xe7\xe8\xf1\\Kawaisugi_Crisis_[10]_[AniLibria_TV]_[WEBRip_1080p].mkv" -lavfi "[0:v]settb=AVTB,setpts=PTS-STARTPTS,format=pix_fmts=yuv420p10,fps=24000/1001,scale=1920:1080:flags=bicubic[main];[1:v]settb=AVTB,setpts=PTS-STARTPTS,format=pix_fmts=yuv420p,fps=24000/1001,scale=1920:1080:flags=bicubic[ref];[main][ref]psnr=eof_action=endall:stats_file='D\\:/Convert/FFMetrics/logs/psnr_logfile-6.txt'" -f null -
Input #0, matroska,webm, from 'G:\Аниме\Онгоинги\!_30_Весна_2023\Слишком милый кризис\Kawaisugi_Crisis_[10]_[AniLibria_TV]_[WEBRip_1080p]_HEVC.mkv':
  Metadata:
    ENCODER         : Lavf61.7.100
  Duration: 00:23:42.51, start: -0.021000, bitrate: 845 kb/s
  Stream #0:0(jpn): Video: hevc (Main 10), yuv420p10le(pc, bt709, progressive), 1920x1080 [SAR 1:1 DAR 16:9], 23.98 fps, 23.98 tbr, 1k tbn (default) (forced)
      Metadata:
        title           : Original
        ENCODER         : Lavc61.19.100 libx265
        BPS             : 648772
        DURATION        : 00:23:42.504708333
        NUMBER_OF_FRAMES: 34106
        NUMBER_OF_BYTES : 115360161
        _STATISTICS_WRITING_APP: mkvpropedit v66.0.0 ('Josie') 64-bit
        _STATISTICS_WRITING_DATE_UTC: 2025-06-09 14:12:57
        _STATISTICS_TAGS: BPS DURATION NUMBER_OF_FRAMES NUMBER_OF_BYTES
  Stream #0:1(rus): Audio: aac (LC), 48000 Hz, stereo, fltp (default) (forced)
      Metadata:
        title           : AniLibria.TV
        ENCODER         : Lavc61.19.100 aac
        BPS             : 192731
        DURATION        : 00:23:42.400000000
        NUMBER_OF_FRAMES: 66676
        NUMBER_OF_BYTES : 34267653
        _STATISTICS_WRITING_APP: mkvpropedit v66.0.0 ('Josie') 64-bit
        _STATISTICS_WRITING_DATE_UTC: 2025-06-09 14:12:57
        _STATISTICS_TAGS: BPS DURATION NUMBER_OF_FRAMES NUMBER_OF_BYTES
  Stream #0:2(rus): Subtitle: ass (ssa) (default) (forced)
      Metadata:
        title           : Надписи
        BPS             : 0
        DURATION        : 00:00:00.000000000
        NUMBER_OF_FRAMES: 0
        NUMBER_OF_BYTES : 0
        _STATISTICS_WRITING_APP: mkvpropedit v66.0.0 ('Josie') 64-bit
        _STATISTICS_WRITING_DATE_UTC: 2025-06-09 14:12:57
        _STATISTICS_TAGS: BPS DURATION NUMBER_OF_FRAMES NUMBER_OF_BYTES
  Stream #0:3(rus): Subtitle: ass (ssa)
      Metadata:
        title           : Субтитры
        BPS             : 168
        DURATION        : 00:23:38.500000000
        NUMBER_OF_FRAMES: 323
        NUMBER_OF_BYTES : 29846
        _STATISTICS_WRITING_APP: mkvpropedit v66.0.0 ('Josie') 64-bit
        _STATISTICS_WRITING_DATE_UTC: 2025-06-09 14:12:57
        _STATISTICS_TAGS: BPS DURATION NUMBER_OF_FRAMES NUMBER_OF_BYTES
Input #1, matroska,webm, from 'G:\Аниме\Онгоинги\!_30_Весна_2023\Слишком милый кризис\Kawaisugi_Crisis_[10]_[AniLibria_TV]_[WEBRip_1080p].mkv':
  Metadata:
    encoder         : libebml v1.4.2 + libmatroska v1.6.4
    creation_time   : 2025-01-14T16:54:40.000000Z
  Duration: 00:23:42.51, start: 0.000000, bitrate: 1595 kb/s
  Stream #1:0(jpn): Video: h264 (High), yuvj420p(pc, bt709, progressive), 1920x1080 [SAR 1:1 DAR 16:9], 23.98 fps, 23.98 tbr, 1k tbn (default) (forced)
      Metadata:
        title           : Original
        BPS             : 1401210
        DURATION        : 00:23:42.505000000
        NUMBER_OF_FRAMES: 34106
        NUMBER_OF_BYTES : 249153635
        _STATISTICS_WRITING_APP: mkvmerge v66.0.0 ('Josie') 64-bit
        _STATISTICS_WRITING_DATE_UTC: 2025-01-14 16:54:40
        _STATISTICS_TAGS: BPS DURATION NUMBER_OF_FRAMES NUMBER_OF_BYTES
  Stream #1:1(rus): Audio: aac (LC), 48000 Hz, stereo, fltp (default) (forced)
      Metadata:
        title           : AniLibria.TV
        BPS             : 192088
        DURATION        : 00:23:42.400000000
        NUMBER_OF_FRAMES: 66675
        NUMBER_OF_BYTES : 34153247
        _STATISTICS_WRITING_APP: mkvmerge v66.0.0 ('Josie') 64-bit
        _STATISTICS_WRITING_DATE_UTC: 2025-01-14 16:54:40
        _STATISTICS_TAGS: BPS DURATION NUMBER_OF_FRAMES NUMBER_OF_BYTES
  Stream #1:2(rus): Subtitle: ass (ssa) (default) (forced)
      Metadata:
        title           : Надписи
        BPS             : 0
        DURATION        : 00:00:00.000000000
        NUMBER_OF_FRAMES: 0
        NUMBER_OF_BYTES : 0
        _STATISTICS_WRITING_APP: mkvmerge v66.0.0 ('Josie') 64-bit
        _STATISTICS_WRITING_DATE_UTC: 2025-01-14 16:54:40
        _STATISTICS_TAGS: BPS DURATION NUMBER_OF_FRAMES NUMBER_OF_BYTES
  Stream #1:3(rus): Subtitle: ass (ssa)
      Metadata:
        title           : Субтитры
        BPS             : 168
        DURATION        : 00:23:38.500000000
        NUMBER_OF_FRAMES: 323
        NUMBER_OF_BYTES : 29846
        _STATISTICS_WRITING_APP: mkvmerge v66.0.0 ('Josie') 64-bit
        _STATISTICS_WRITING_DATE_UTC: 2025-01-14 16:54:40
        _STATISTICS_TAGS: BPS DURATION NUMBER_OF_FRAMES NUMBER_OF_BYTES
Stream mapping:
  Stream #0:0 (hevc) -> settb:default
  Stream #1:0 (h264) -> settb:default
  psnr:default -> Stream #0:0 (wrapped_avframe)
  Stream #0:1 -> #0:1 (aac (native) -> pcm_s16le (native))
[swscaler @ 0000017009bfb880] deprecated pixel format used, make sure you did set range correctly
Output #0, null, to 'pipe:':
  Metadata:
    encoder         : Lavf61.7.100
  Stream #0:0: Video: wrapped_avframe, yuv420p10le(pc, bt709, progressive), 1920x1080 [SAR 1:1 DAR 16:9], q=2-31, 200 kb/s, 23.98 fps, 23.98 tbn
      Metadata:
        encoder         : Lavc61.19.100 wrapped_avframe
  Stream #0:1(rus): Audio: pcm_s16le, 48000 Hz, stereo, s16, 1536 kb/s (default) (forced)
      Metadata:
        title           : AniLibria.TV
        _STATISTICS_TAGS: BPS DURATION NUMBER_OF_FRAMES NUMBER_OF_BYTES
        BPS             : 192731
        DURATION        : 00:23:42.400000000
        NUMBER_OF_FRAMES: 66676
        NUMBER_OF_BYTES : 34267653
        _STATISTICS_WRITING_APP: mkvpropedit v66.0.0 ('Josie') 64-bit
        _STATISTICS_WRITING_DATE_UTC: 2025-06-09 14:12:57
        encoder         : Lavc61.19.100 pcm_s16le
frame=  144 fps=0.0 q=-0.0 size=N/A time=00:00:06.00 bitrate=N/A speed=11.7x    frame=  311 fps=301 q=-0.0 size=N/A time=00:00:12.97 bitrate=N/A speed=12.6x    frame=  516 fps=335 q=-0.0 size=N/A time=00:00:21.52 bitrate=N/A speed=  14x    frame=  759 fps=370 q=-0.0 size=N/A time=00:00:31.65 bitrate=N/A speed=15.4x    frame=  997 fps=387 q=-0.0 size=N/A time=00:00:41.58 bitrate=N/A speed=16.2x    frame= 1228 fps=398 q=-0.0 size=N/A time=00:00:51.21 bitrate=N/A speed=16.6x    frame= 1472 fps=408 q=-0.0 size=N/A time=00:01:01.39 bitrate=N/A speed=  17x    frame= 1729 fps=419 q=-0.0 size=N/A time=00:01:12.11 bitrate=N/A speed=17.5x    frame= 1977 fps=426 q=-0.0 size=N/A time=00:01:22.45 bitrate=N/A speed=17.8x    frame= 2220 fps=431 q=-0.0 size=N/A time=00:01:32.59 bitrate=N/A speed=  18x    frame= 2439 fps=431 q=-0.0 size=N/A time=00:01:41.72 bitrate=N/A speed=  18x    frame= 2690 fps=435 q=-0.0 size=N/A time=00:01:52.19 bitrate=N/A speed=18.1x    frame= 2924 fps=437 q=-0.0 size=N/A time=00:02:01.95 bitrate=N/A speed=18.2x    frame= 3137 fps=435 q=-0.0 size=N/A time=00:02:10.83 bitrate=N/A speed=18.1x    frame= 3367 fps=436 q=-0.0 size=N/A time=00:02:20.43 bitrate=N/A speed=18.2x    frame= 3597 fps=436 q=-0.0 size=N/A time=00:02:30.02 bitrate=N/A speed=18.2x    frame= 3807 fps=434 q=-0.0 size=N/A time=00:02:38.78 bitrate=N/A speed=18.1x    frame= 4011 fps=433 q=-0.0 size=N/A time=00:02:47.29 bitrate=N/A speed=  18x    frame= 4246 fps=433 q=-0.0 size=N/A time=00:02:57.09 bitrate=N/A speed=18.1x    frame= 4464 fps=433 q=-0.0 size=N/A time=00:03:06.18 bitrate=N/A speed=18.1x    frame= 4706 fps=435 q=-0.0 size=N/A time=00:03:16.27 bitrate=N/A speed=18.1x    frame= 4898 fps=432 q=-0.0 size=N/A time=00:03:24.28 bitrate=N/A speed=  18x    frame= 5021 fps=424 q=-0.0 size=N/A time=00:03:29.41 bitrate=N/A speed=17.7x    frame= 5256 fps=425 q=-0.0 size=N/A time=00:03:39.21 bitrate=N/A speed=17.7x    frame= 5487 fps=426 q=-0.0 size=N/A time=00:03:48.85 bitrate=N/A speed=17.8x    frame= 5705 fps=426 q=-0.0 size=N/A time=00:03:57.94 bitrate=N/A speed=17.8x    frame= 5943 fps=427 q=-0.0 size=N/A time=00:04:07.91 bitrate=N/A speed=17.8x    frame= 6195 fps=429 q=-0.0 size=N/A time=00:04:18.38 bitrate=N/A speed=17.9x    frame= 6448 fps=431 q=-0.0 size=N/A time=00:04:28.93 bitrate=N/A speed=  18x    frame= 6682 fps=432 q=-0.0 size=N/A time=00:04:38.69 bitrate=N/A speed=  18x    frame= 6935 fps=434 q=-0.0 size=N/A time=00:04:49.24 bitrate=N/A speed=18.1x    frame= 7180 fps=435 q=-0.0 size=N/A time=00:04:59.46 bitrate=N/A speed=18.1x    frame= 7403 fps=435 q=-0.0 size=N/A time=00:05:08.76 bitrate=N/A speed=18.1x    frame= 7638 fps=435 q=-0.0 size=N/A time=00:05:18.56 bitrate=N/A speed=18.2x    frame= 7868 fps=436 q=-0.0 size=N/A time=00:05:28.16 bitrate=N/A speed=18.2x    frame= 8094 fps=436 q=-0.0 size=N/A time=00:05:37.58 bitrate=N/A speed=18.2x    frame= 8338 fps=437 q=-0.0 size=N/A time=00:05:47.76 bitrate=N/A speed=18.2x    frame= 8557 fps=437 q=-0.0 size=N/A time=00:05:56.89 bitrate=N/A speed=18.2x    frame= 8779 fps=436 q=-0.0 size=N/A time=00:06:06.15 bitrate=N/A speed=18.2x    frame= 9027 fps=438 q=-0.0 size=N/A time=00:06:16.50 bitrate=N/A speed=18.3x    frame= 9283 fps=439 q=-0.0 size=N/A time=00:06:27.17 bitrate=N/A speed=18.3x    frame= 9532 fps=440 q=-0.0 size=N/A time=00:06:37.56 bitrate=N/A speed=18.3x    frame= 9787 fps=441 q=-0.0 size=N/A time=00:06:48.19 bitrate=N/A speed=18.4x    frame=10026 fps=442 q=-0.0 size=N/A time=00:06:58.16 bitrate=N/A speed=18.4x    frame=10284 fps=443 q=-0.0 size=N/A time=00:07:08.92 bitrate=N/A speed=18.5x    frame=10519 fps=443 q=-0.0 size=N/A time=00:07:18.72 bitrate=N/A speed=18.5x    frame=10753 fps=443 q=-0.0 size=N/A time=00:07:28.48 bitrate=N/A speed=18.5x    frame=10982 fps=444 q=-0.0 size=N/A time=00:07:38.04 bitrate=N/A speed=18.5x    frame=11229 fps=444 q=-0.0 size=N/A time=00:07:48.34 bitrate=N/A speed=18.5x    frame=11465 fps=445 q=-0.0 size=N/A time=00:07:58.18 bitrate=N/A speed=18.5x    frame=11715 fps=445 q=-0.0 size=N/A time=00:08:08.61 bitrate=N/A speed=18.6x    frame=11950 fps=445 q=-0.0 size=N/A time=00:08:18.41 bitrate=N/A speed=18.6x    frame=12205 fps=446 q=-0.0 size=N/A time=00:08:29.05 bitrate=N/A speed=18.6x    frame=12456 fps=447 q=-0.0 size=N/A time=00:08:39.51 bitrate=N/A speed=18.6x    frame=12692 fps=447 q=-0.0 size=N/A time=00:08:49.36 bitrate=N/A speed=18.7x    frame=12944 fps=448 q=-0.0 size=N/A time=00:08:59.87 bitrate=N/A speed=18.7x    frame=13181 fps=448 q=-0.0 size=N/A time=00:09:09.75 bitrate=N/A speed=18.7x    frame=13409 fps=448 q=-0.0 size=N/A time=00:09:19.26 bitrate=N/A speed=18.7x    frame=13646 fps=448 q=-0.0 size=N/A time=00:09:29.15 bitrate=N/A speed=18.7x    frame=13878 fps=448 q=-0.0 size=N/A time=00:09:38.82 bitrate=N/A speed=18.7x    frame=14116 fps=449 q=-0.0 size=N/A time=00:09:48.75 bitrate=N/A speed=18.7x    frame=14370 fps=449 q=-0.0 size=N/A time=00:09:59.34 bitrate=N/A speed=18.7x    frame=14622 fps=450 q=-0.0 size=N/A time=00:10:09.85 bitrate=N/A speed=18.8x    frame=14879 fps=451 q=-0.0 size=N/A time=00:10:20.57 bitrate=N/A speed=18.8x    frame=15092 fps=450 q=-0.0 size=N/A time=00:10:29.46 bitrate=N/A speed=18.8x    frame=15344 fps=451 q=-0.0 size=N/A time=00:10:39.97 bitrate=N/A speed=18.8x    frame=15583 fps=451 q=-0.0 size=N/A time=00:10:49.94 bitrate=N/A speed=18.8x    frame=15830 fps=451 q=-0.0 size=N/A time=00:11:00.24 bitrate=N/A speed=18.8x    frame=16054 fps=451 q=-0.0 size=N/A time=00:11:09.58 bitrate=N/A speed=18.8x    frame=16291 fps=451 q=-0.0 size=N/A time=00:11:19.47 bitrate=N/A speed=18.8x    frame=16519 fps=451 q=-0.0 size=N/A time=00:11:28.97 bitrate=N/A speed=18.8x    frame=16759 fps=451 q=-0.0 size=N/A time=00:11:38.98 bitrate=N/A speed=18.8x    frame=17012 fps=452 q=-0.0 size=N/A time=00:11:49.54 bitrate=N/A speed=18.8x    frame=17263 fps=452 q=-0.0 size=N/A time=00:12:00.01 bitrate=N/A speed=18.9x    frame=17469 fps=451 q=-0.0 size=N/A time=00:12:08.60 bitrate=N/A speed=18.8x    frame=17712 fps=452 q=-0.0 size=N/A time=00:12:18.73 bitrate=N/A speed=18.8x    frame=17948 fps=452 q=-0.0 size=N/A time=00:12:28.58 bitrate=N/A speed=18.8x    frame=18190 fps=452 q=-0.0 size=N/A time=00:12:38.67 bitrate=N/A speed=18.8x    frame=18437 fps=452 q=-0.0 size=N/A time=00:12:48.97 bitrate=N/A speed=18.9x    frame=18685 fps=453 q=-0.0 size=N/A time=00:12:59.32 bitrate=N/A speed=18.9x    frame=18904 fps=452 q=-0.0 size=N/A time=00:13:08.45 bitrate=N/A speed=18.9x    frame=19160 fps=453 q=-0.0 size=N/A time=00:13:19.13 bitrate=N/A speed=18.9x    frame=19389 fps=453 q=-0.0 size=N/A time=00:13:28.68 bitrate=N/A speed=18.9x    frame=19641 fps=453 q=-0.0 size=N/A time=00:13:39.19 bitrate=N/A speed=18.9x    frame=19860 fps=453 q=-0.0 size=N/A time=00:13:48.32 bitrate=N/A speed=18.9x    frame=20091 fps=453 q=-0.0 size=N/A time=00:13:57.96 bitrate=N/A speed=18.9x    frame=20344 fps=453 q=-0.0 size=N/A time=00:14:08.51 bitrate=N/A speed=18.9x    frame=20582 fps=453 q=-0.0 size=N/A time=00:14:18.44 bitrate=N/A speed=18.9x    frame=20829 fps=454 q=-0.0 size=N/A time=00:14:28.74 bitrate=N/A speed=18.9x    frame=21048 fps=453 q=-0.0 size=N/A time=00:14:37.87 bitrate=N/A speed=18.9x    frame=21275 fps=453 q=-0.0 size=N/A time=00:14:47.34 bitrate=N/A speed=18.9x    frame=21526 fps=453 q=-0.0 size=N/A time=00:14:57.81 bitrate=N/A speed=18.9x    frame=21775 fps=454 q=-0.0 size=N/A time=00:15:08.19 bitrate=N/A speed=18.9x    frame=22030 fps=454 q=-0.0 size=N/A time=00:15:18.83 bitrate=N/A speed=18.9x    frame=22268 fps=454 q=-0.0 size=N/A time=00:15:28.76 bitrate=N/A speed=18.9x    frame=22503 fps=454 q=-0.0 size=N/A time=00:15:38.56 bitrate=N/A speed=18.9x    frame=22756 fps=455 q=-0.0 size=N/A time=00:15:49.11 bitrate=N/A speed=  19x    frame=22979 fps=454 q=-0.0 size=N/A time=00:15:58.41 bitrate=N/A speed=  19x    frame=23218 fps=455 q=-0.0 size=N/A time=00:16:08.38 bitrate=N/A speed=  19x    frame=23463 fps=455 q=-0.0 size=N/A time=00:16:18.60 bitrate=N/A speed=  19x    frame=23699 fps=455 q=-0.0 size=N/A time=00:16:28.44 bitrate=N/A speed=  19x    frame=23963 fps=455 q=-0.0 size=N/A time=00:16:39.45 bitrate=N/A speed=  19x    frame=24189 fps=455 q=-0.0 size=N/A time=00:16:48.88 bitrate=N/A speed=  19x    frame=24412 fps=455 q=-0.0 size=N/A time=00:16:58.18 bitrate=N/A speed=  19x    frame=24668 fps=455 q=-0.0 size=N/A time=00:17:08.86 bitrate=N/A speed=  19x    frame=24906 fps=455 q=-0.0 size=N/A time=00:17:18.78 bitrate=N/A speed=  19x    frame=25145 fps=455 q=-0.0 size=N/A time=00:17:28.75 bitrate=N/A speed=  19x    frame=25403 fps=456 q=-0.0 size=N/A time=00:17:39.51 bitrate=N/A speed=  19x    frame=25648 fps=456 q=-0.0 size=N/A time=00:17:49.73 bitrate=N/A speed=  19x    frame=25900 fps=456 q=-0.0 size=N/A time=00:18:00.24 bitrate=N/A speed=  19x    frame=26133 fps=456 q=-0.0 size=N/A time=00:18:09.96 bitrate=N/A speed=  19x    frame=26369 fps=456 q=-0.0 size=N/A time=00:18:19.80 bitrate=N/A speed=  19x    frame=26624 fps=457 q=-0.0 size=N/A time=00:18:30.44 bitrate=N/A speed=  19x    frame=26861 fps=457 q=-0.0 size=N/A time=00:18:40.32 bitrate=N/A speed=  19x    frame=27110 fps=457 q=-0.0 size=N/A time=00:18:50.71 bitrate=N/A speed=19.1x    frame=27359 fps=457 q=-0.0 size=N/A time=00:19:01.09 bitrate=N/A speed=19.1x    frame=27601 fps=457 q=-0.0 size=N/A time=00:19:11.19 bitrate=N/A speed=19.1x    frame=27849 fps=457 q=-0.0 size=N/A time=00:19:21.53 bitrate=N/A speed=19.1x    frame=28053 fps=457 q=-0.0 size=N/A time=00:19:30.04 bitrate=N/A speed=19.1x    frame=28299 fps=457 q=-0.0 size=N/A time=00:19:40.30 bitrate=N/A speed=19.1x    frame=28546 fps=457 q=-0.0 size=N/A time=00:19:50.60 bitrate=N/A speed=19.1x    frame=28781 fps=457 q=-0.0 size=N/A time=00:20:00.40 bitrate=N/A speed=19.1x    frame=29010 fps=457 q=-0.0 size=N/A time=00:20:09.95 bitrate=N/A speed=19.1x    frame=29229 fps=457 q=-0.0 size=N/A time=00:20:19.09 bitrate=N/A speed=19.1x    frame=29494 fps=457 q=-0.0 size=N/A time=00:20:30.14 bitrate=N/A speed=19.1x    frame=29735 fps=457 q=-0.0 size=N/A time=00:20:40.19 bitrate=N/A speed=19.1x    frame=29994 fps=458 q=-0.0 size=N/A time=00:20:50.99 bitrate=N/A speed=19.1x    frame=30213 fps=458 q=-0.0 size=N/A time=00:21:00.13 bitrate=N/A speed=19.1x    frame=30451 fps=458 q=-0.0 size=N/A time=00:21:10.06 bitrate=N/A speed=19.1x    frame=30692 fps=458 q=-0.0 size=N/A time=00:21:20.11 bitrate=N/A speed=19.1x    frame=30911 fps=457 q=-0.0 size=N/A time=00:21:29.24 bitrate=N/A speed=19.1x    frame=31134 fps=457 q=-0.0 size=N/A time=00:21:38.54 bitrate=N/A speed=19.1x    frame=31370 fps=457 q=-0.0 size=N/A time=00:21:48.39 bitrate=N/A speed=19.1x    frame=31595 fps=457 q=-0.0 size=N/A time=00:21:57.77 bitrate=N/A speed=19.1x    frame=31762 fps=456 q=-0.0 size=N/A time=00:22:04.74 bitrate=N/A speed=  19x    frame=31974 fps=456 q=-0.0 size=N/A time=00:22:13.58 bitrate=N/A speed=  19x    frame=32124 fps=454 q=-0.0 size=N/A time=00:22:19.83 bitrate=N/A speed=  19x    frame=32279 fps=453 q=-0.0 size=N/A time=00:22:26.30 bitrate=N/A speed=18.9x    frame=32433 fps=452 q=-0.0 size=N/A time=00:22:32.72 bitrate=N/A speed=18.9x    frame=32585 fps=451 q=-0.0 size=N/A time=00:22:39.06 bitrate=N/A speed=18.8x    frame=32734 fps=450 q=-0.0 size=N/A time=00:22:45.28 bitrate=N/A speed=18.8x    frame=32889 fps=449 q=-0.0 size=N/A time=00:22:51.74 bitrate=N/A speed=18.7x    frame=33044 fps=448 q=-0.0 size=N/A time=00:22:58.21 bitrate=N/A speed=18.7x    frame=33221 fps=447 q=-0.0 size=N/A time=00:23:05.59 bitrate=N/A speed=18.6x    frame=33404 fps=447 q=-0.0 size=N/A time=00:23:13.22 bitrate=N/A speed=18.6x    frame=33637 fps=447 q=-0.0 size=N/A time=00:23:22.94 bitrate=N/A speed=18.6x    frame=33825 fps=446 q=-0.0 size=N/A time=00:23:30.78 bitrate=N/A speed=18.6x    frame=34031 fps=446 q=-0.0 size=N/A time=00:23:39.37 bitrate=N/A speed=18.6x    [Parsed_psnr_10 @ 0000017004b84140] PSNR y:48.826505 u:52.276058 v:52.293770 average:49.704315 min:43.462435 max:inf
[out#0/null @ 000001707365e980] video:14654KiB audio:266704KiB subtitle:0KiB other streams:0KiB global headers:0KiB muxing overhead: unknown
frame=34105 fps=446 q=-0.0 Lsize=N/A time=00:23:42.42 bitrate=N/A speed=18.6x    
